# xmcd CD database file
#
# Track frame offsets:
#	150
#	27478
#	46807
#	68769
#	100214
#	118411
#	146939
#	180817
#	194206
#	205907
#	227283
#	236618
#	256268
#
# Disc length: 3720 seconds
#
# Revision: 1
# Processed by: cddbd v1.5.2PL0 Copyright (c) Steve Scherf et al.
# Submitted via: CDex 1.70beta2
#
DISCID=b90e860d
DTITLE=Büdi Siebert - Nepal - Acht - Der Weg hat ein Ziel
DYEAR=2015
DGENRE=New Age
TTITLE0=Om Nama Shivaya
TTITLE1=Point of no Return
TTITLE2=Om Mani Pedme Hum Hri
TTITLE3=The Gate
TTITLE4=Invitation
TTITLE5=Silent Tears
TTITLE6=Lotus Call
TTITLE7=Island of Light
TTITLE8=Sweet Song
TTITLE9=Om Mani Padme Hum
TTITLE10=Breath
TTITLE11=Nepal Peace Mantra
TTITLE12=Om Nama Shivaya (instr. version)
EXTD=YEAR: 2015
EXTT0=
EXTT1=
EXTT2=
EXTT3=
EXTT4=
EXTT5=
EXTT6=
EXTT7=
EXTT8=
EXTT9=
EXTT10=
EXTT11=
EXTT12=
PLAYORDER=
